# xmcd
#
# Track frame offsets: 
#        150
#        17292
#        35140
#        53635
#        73295
#        89652
#        105105
#        122565
#        142470
#        159237
#        176547
#        198562
#        218745
#        233945
#
# Disc length: 3305 seconds
#
# Revision: 0
# Processed by: cddbd v1.5.2PL0 Copyright (c) Steve Scherf et al.
# Submitted via: ExactAudioCopyFreeDBPlugin 1.0
#
DISCID=c40ce70e
DTITLE=多位演出者 - 台語情歌男女對唱2
DYEAR=1900
DGENRE=Pop
TTITLE0=愛你這呢深
TTITLE1=台北今夜冷清清
TTITLE2=最愛的人
TTITLE3=希望的期待
TTITLE4=恰想也是你一人
TTITLE5=行船的人
TTITLE6=今夜又擱塊落雨
TTITLE7=野草亦是花
TTITLE8=你是我的生命
TTITLE9=月圓思情
TTITLE10=雙人枕頭
TTITLE11=我的選擇猶原是你
TTITLE12=用生命所愛的人
TTITLE13=望呀望!等呀等!
EXTD=
EXTT0=
EXTT1=
EXTT2=
EXTT3=
EXTT4=
EXTT5=
EXTT6=
EXTT7=
EXTT8=
EXTT9=
EXTT10=
EXTT11=
EXTT12=
EXTT13=
PLAYORDER=
